Simulation
nRows=44
nColumns=15
endheader
time  TH_x TH_y TH_z SC_y  SC_z  SC_x  AC_y  AC_z  AC_x  GH_y  GH_z  GH_yy  EL_x  PS_y
2.8725  0.000000  0.000000  0.000000  -38.66697189891206  -1.4904658337838481  -9.133040883393429  45.986163823446745  11.704688970312288  4.9262171025951105  6.346526769972569  9.111349731284502  0.44922844311963317  14.027891982273031  120.000000
2.92995  0.000000  0.000000  0.000000  -38.47641871795018  -1.6426684227041513  -8.83428852068787  46.577732891655266  11.751632459089848  5.012734866904706  7.775166396916371  7.804299045766914  1.3743773258029082  14.39289273039701  120.000000
2.9874  0.000000  0.000000  0.000000  -38.40645295941573  -1.7296544507186713  -8.474792181011267  47.152164735027036  11.768583974284592  5.083096453735736  10.241837777915581  6.713545976397038  0.8450464073005151  14.844024531971343  120.000000
3.0448500000000003  0.000000  0.000000  0.000000  -38.42941553794482  -1.7503395836876787  -8.07524146015842  47.66358936994081  11.752944235995642  5.125397699463099  13.789237530531704  5.816059875039645  -1.2048632218952842  15.335111063466455  120.000000
3.1023  0.000000  0.000000  0.000000  -38.51326487239338  -1.706324362982041  -7.655068013859913  48.08809810440874  11.709355713881848  5.137792686590751  18.211583155671864  5.100877148776368  -4.542387424567979  15.82280919145882  120.000000
3.15975  0.000000  0.000000  0.000000  -38.62817557802913  -1.6044544595092647  -7.234342626308172  48.42254145255021  11.64926848631302  5.127038881840691  23.05732091185062  4.559494912259519  -8.655792776491452  16.277060156489597  120.000000
3.2172  0.000000  0.000000  0.000000  -38.74828934267881  -1.4601283557328069  -6.835039226979633  48.67783974399784  11.58654051518297  5.106968562246658  27.70977850358408  4.175605694417903  -12.849292928797627  16.687640492265537  120.000000
3.2746500000000003  0.000000  0.000000  0.000000  -38.85155875371847  -1.295331308413155  -6.4773756288931885  48.87165783793795  11.52977493944273  5.09189654699026  31.57932133138829  3.922088167037148  -16.44746103274174  17.06183059802895  120.000000
3.3321  0.000000  0.000000  0.000000  -38.91989079850887  -1.1316746734503653  -6.177691541155014  49.02360363280724  11.480687061720669  5.091804111249126  34.329597655909765  3.7680170494624674  -19.032891924114924  17.41554417341105  120.000000
3.38955  0.000000  0.000000  0.000000  -38.94143863205988  -0.9854510057068218  -5.946314803453193  49.14954668673561  11.43829753150355  5.113588025331562  35.96563447330735  3.6883461135063733  -20.54401482539499  17.764670903768362  120.000000
3.447  0.000000  0.000000  0.000000  -38.91467574917872  -0.8677506556740868  -5.787095962399329  49.25758969165025  11.402337861811535  5.16174538485328  36.739708209277666  3.668253830978679  -21.18872198794591  18.118662051794672  120.000000
3.5044500000000003  0.000000  0.000000  0.000000  -38.847581500389005  -0.7832135911577223  -5.701126494732403  49.35047064403736  11.37384425859353  5.236532589626807  37.011545502916675  3.7009643808778487  -21.304047306827197  18.480165012622933  120.000000
3.5619  0.000000  0.000000  0.000000  -38.75424499677495  -0.7303184449757577  -5.688787019255818  49.4272097083105  11.354675681117008  5.3348359600207935  37.10651918582392  3.7842989523401993  -21.208685529512792  18.8479987370986  120.000000
3.61935  0.000000  0.000000  0.000000  -38.64942183827967  -0.7038972668057827  -5.750437591656939  49.483566552739866  11.347478289178849  5.451775524994603  37.21665795645929  3.917842597188087  -21.09643580959134  19.21953040756639  120.000000
3.6768  0.000000  0.000000  0.000000  -38.54418011356075  -0.698190186810344  -5.886880412855475  49.512662188981345  11.355163296297537  5.582414309157415  37.39355112652676  4.101316167371834  -21.023466286832384  19.5925887970437  120.000000
3.7342500000000003  0.000000  0.000000  0.000000  -38.44296900665624  -0.7090683495880696  -6.099109420055714  49.506372097060236  11.379699590418976  5.723139806531094  37.59735651649224  4.334053149424255  -20.95353502311674  19.96629032463279  120.000000
3.7917  0.000000  0.000000  0.000000  -38.343587472814335  -0.7350174982324955  -6.387863545543277  49.45803597187982  11.421474462604083  5.871505091900036  37.748816675306834  4.616362953616187  -20.808735078937623  20.34118327948352  120.000000
3.84915  0.000000  0.000000  0.000000  -38.23861396413545  -0.7773164452073049  -6.752676775742662  49.36386227110811  11.479249817303398  6.0263675538156996  37.74452202221024  4.950510370784475  -20.483591288346954  20.718077032081286  120.000000
3.9066  0.000000  0.000000  0.000000  -38.11882879633469  -0.8400990102549185  -7.191108458363331  49.22261591724382  11.550512592296036  6.188320244029103  37.453750981993224  5.341212517276068  -19.84182440264108  21.096704747206033  120.000000
3.9640500000000003  0.000000  0.000000  0.000000  -37.97500690795617  -0.9277703399970382  -7.6991785539001825  49.0372436796244  11.632143176104202  6.358463410662529  36.74167555117198  5.796805912870036  -18.740896945615958  21.474864150549436  120.000000
4.0215  0.000000  0.000000  0.000000  -37.80020589915145  -1.0415744935865157  -8.271086016916657  48.81531964241178  11.721730088280166  6.537227406320868  35.52350399232497  6.331864098471924  -17.09210789654229  21.84835659863128  120.000000
4.07895  0.000000  0.000000  0.000000  -37.59152368729767  -1.1778645336129085  -8.898093481962462  48.56745042955195  11.817365201863227  6.725422076740131  33.83341922047565  6.967577607434576  -14.93819252065415  22.209927743856408  120.000000
4.1364  0.000000  0.000000  0.000000  -37.35346288800052  -1.330095500105125  -9.5675544837251  48.30579657127154  11.91664543631094  6.925607711442919  31.867457993628186  7.7287913804922015  -12.506249005085415  22.546917420076465  120.000000
4.19385  0.000000  0.000000  0.000000  -37.09611749869388  -1.4819153332104085  -10.2618247811194  48.049112315468065  12.018102895851058  7.140821182941031  29.963554729473152  8.638114532998989  -10.191984173604848  22.841340997491432  120.000000
4.2513000000000005  0.000000  0.000000  0.000000  -36.829600643085186  -1.604216145215239  -10.952385028304919  47.82626191069995  12.127929592670194  7.375658630036084  28.494704699241915  9.710522587019655  -8.44902970047542  23.073571431576106  120.000000
4.30875  0.000000  0.000000  0.000000  -36.56094827281073  -1.6591256319206507  -11.59008688631084  47.66219139223328  12.264269147375058  7.645915012162214  27.711580014529204  10.943509630625659  -7.61859375568799  23.228782348427803  120.000000
4.3662  0.000000  0.000000  0.000000  -36.3012326539008  -1.6094840883544437  -12.105360554802964  47.56091190701686  12.45542391099246  7.979561350069943  27.63908960324638  12.310677640623712  -7.810253730282203  23.30597000722031  120.000000
4.42365  0.000000  0.000000  0.000000  -36.07057039430861  -1.4155718816443925  -12.418125456276426  47.520407763762535  12.736013017037065  8.402048446808164  28.16236794797505  13.779573461084645  -8.974859781022927  23.330795080653722  120.000000
4.4811  0.000000  0.000000  0.000000  -35.89087753960169  -1.0212820897933217  -12.450305850907316  47.55894957729234  13.14061970077639  8.916386433446865  29.134580163651197  15.3355641438804  -11.001101367629726  23.357695569273073  120.000000
4.53855  0.000000  0.000000  0.000000  -35.797520411173195  -0.3712542164915049  -12.135663551473357  47.698850221437155  13.691257828497035  9.498920351589527  30.348444512026802  16.98084233746  -13.68051819476707  23.44634371596417  120.000000
4.596  0.000000  0.000000  0.000000  -35.836544178588994  0.5703200099002498  -11.41831343437824  47.93378446140089  14.377877547241816  10.12508580216806  31.54365096726465  18.708035293684535  -16.706102636489568  23.63260687885293  120.000000
4.65345  0.000000  0.000000  0.000000  -36.042355442010866  1.8057085534266863  -10.252137523190067  48.230562308516745  15.150876247077786  10.786252184756929  32.49202692153387  20.485226149891666  -19.753275968260205  23.908624786030177  120.000000
4.7109000000000005  0.000000  0.000000  0.000000  -36.42620644578156  3.3053966719091714  -8.609054284821983  48.55103549714185  15.931418538836434  11.482846201391315  33.05393340520833  22.2587394034377  -22.548281487719173  24.22182689050025  120.000000
4.76835  0.000000  0.000000  0.000000  -36.99042186180022  5.02198956786328  -6.482565163804687  48.8605377949964  16.627744149879728  12.22049903640238  33.18106118033309  23.966029664297714  -24.896771757863867  24.49464591416545  120.000000
4.8258  0.000000  0.000000  0.000000  -37.74822966448771  6.895319655640962  -3.8865463812307506  49.13502349776156  17.154869889373966  13.00601304565403  32.89686636186827  25.557237257823836  -26.698077497652875  24.651690855353294  120.000000
4.88325  0.000000  0.000000  0.000000  -38.72885036219447  8.85128003664005  -0.8528994114481809  49.37067538619724  17.452495398750223  13.843890704022993  32.27413319842594  27.012742346882558  -27.950450243136583  24.6426094958254  120.000000
4.9407  0.000000  0.000000  0.000000  -39.96724213898162  10.800661540074428  2.5685222271507855  49.58683137271627  17.498240398620716  14.733167161403257  31.40355000721386  28.34713539275156  -28.730880611183206  24.448666337674123  120.000000
4.99815  0.000000  0.000000  0.000000  -41.4857108552146  12.646891608725934  6.3063926288786964  49.81949592096321  17.309307454846614  15.66638118787716  30.365963581232993  29.59980187070646  -29.155524724744055  24.075701241787574  120.000000
5.0556  0.000000  0.000000  0.000000  -43.27763310171231  14.296531361407892  10.26595263879135  50.10796333766812  16.932164731326743  16.63204378148013  29.218962131819755  30.819420162962246  -29.341414331454903  23.545380599931587  120.000000
5.11305  0.000000  0.000000  0.000000  -45.29782511380544  15.673195962553374  14.32863730822464  50.482205974090775  16.427625945214796  17.612494188725773  27.992539662191696  32.049506215868426  -29.378057447998117  22.892241509639547  120.000000
5.1705000000000005  0.000000  0.000000  0.000000  -47.465740039561176  16.728235456169088  18.3576021670474  50.95550832783811  15.855118745626399  18.582741718124524  26.70194323861202  33.31798690272331  -29.32465928559961  22.164049205318705  120.000000
5.22795  0.000000  0.000000  0.000000  -49.67209193757738  17.449068630547796  22.207239916152776  51.5253632281399  15.264662142292595  19.509156643769888  25.374089539476067  34.630933322698304  -29.23083837291747  21.41842655492182  120.000000
5.2854  0.000000  0.000000  0.000000  -51.79120419967373  17.859773581604614  25.73430168895647  52.17328977709589  14.695597240380202  20.348186202886374  24.059660640923486  35.96855508929805  -29.14997123460401  20.71230944954259  120.000000
5.34285  0.000000  0.000000  0.000000  -53.697446338773915  18.012084818908846  28.808664042585278  52.859822013678965  14.176828548582336  21.047760540501873  22.824672134004523  37.28389665737679  -29.134012658837584  20.08755719030654  120.000000
